<?xml version="1.0" encoding="UTF-8"?>
<svg width="147px" height="109px" viewBox="0 0 147 109" version="1.1" xmlns="http://www.w3.org/2000/svg" xmlns:xlink="http://www.w3.org/1999/xlink">
    <!-- Generator: Sketch 62 (91390) - https://sketch.com -->
    <title>tipi</title>
    <desc>Created with Sketch.</desc>
    <g id="Logo" stroke="none" stroke-width="1" fill="none" fill-rule="evenodd">
        <path d="M23.8085937,76.7050781 L23.8085937,43.6582031 C23.8085937,40.8266651 26.1040089,38.53125 28.9355469,38.53125 C31.7670849,38.53125 34.0625,36.2358349 34.0625,33.4042969 L34.0625,31.3535156 C34.0625,28.5219776 31.7670849,26.2265625 28.9355469,26.2265625 C26.1040089,26.2265625 23.8085937,23.9311474 23.8085937,21.0996094 L23.8085937,11.9003906 C23.8085937,8.25984174 20.8573458,5.30859375 17.2167969,5.30859375 C13.576248,5.30859375 10.625,8.25984174 10.625,11.9003906 L10.625,20.9140625 C10.625,23.8480752 8.24651273,26.2265625 5.3125,26.2265625 C2.37848727,26.2265625 -1.14104759e-13,28.6050498 -1.13686838e-13,31.5390625 L-1.13686838e-13,33.21875 C-1.11551168e-13,36.1527627 2.37848727,38.53125 5.3125,38.53125 C8.24651273,38.53125 10.625,40.9097373 10.625,43.84375 L10.625,76.7050781 C10.625,80.345627 13.576248,83.296875 17.2167969,83.296875 C20.8573458,83.296875 23.8085937,80.345627 23.8085937,76.7050781 Z M48.7684375,17.1679688 C51.15125,17.1679688 53.1629687,16.328125 54.8035937,14.6484375 C56.4832812,12.96875 57.323125,10.9375 57.323125,8.5546875 C57.323125,6.171875 56.4832812,4.16015625 54.8035937,2.51953125 C53.1239062,0.83984375 51.0926562,0 48.7098437,0 C46.3660937,0 44.354375,0.83984375 42.6746875,2.51953125 C40.995,4.19921875 40.1551562,6.19140625 40.1551562,8.49609375 C40.1551562,10.9179688 40.995,12.96875 42.6746875,14.6484375 C44.354375,16.328125 46.385625,17.1679688 48.7684375,17.1679688 Z M55.3309375,76.7050781 L55.3309375,32.8183594 C55.3309375,29.1778105 52.3796895,26.2265625 48.7391406,26.2265625 C45.0985917,26.2265625 42.1473438,29.1778105 42.1473438,32.8183594 L42.1473438,76.7050781 C42.1473438,80.345627 45.0985917,83.296875 48.7391406,83.296875 C52.3796895,83.296875 55.3309375,80.345627 55.3309375,76.7050781 Z M79.33375,101.759766 L79.33375,76.9101562 L79.33375,76.9101562 C84.6071875,82.2617187 88.58375,83.9375 95.2634375,83.9375 C102.997812,83.9375 109.404062,82.1054687 114.482187,76.4414062 C119.599375,70.7382812 122.157969,63.609375 122.157969,55.0546875 C122.157969,46.3046875 119.579844,39.0585937 114.423594,33.3164062 C109.345469,27.5351563 102.880625,25.6445312 95.0290625,25.6445312 C88.4275,25.6445312 84.5290625,27.2421875 79.33375,32.4375 C79.33375,29.0072939 76.5530186,26.2265625 73.1228125,26.2265625 L72.7419531,26.2265625 C69.1014042,26.2265625 66.1501562,29.1778105 66.1501562,32.8183594 L66.1501562,101.759766 C66.1501562,105.400315 69.1014042,108.351563 72.7419531,108.351563 C76.382502,108.351563 79.33375,105.400315 79.33375,101.759766 Z M95.8025,73.1601562 C90.95875,73.1601562 87.0525,71.4609375 84.08375,68.0625 C81.0759375,64.5859375 79.5720312,60.171875 79.5720312,54.8203125 C79.5720312,49.3515625 81.0759375,44.9375 84.08375,41.578125 C87.0915625,38.21875 91.0173437,36.5390625 95.8610937,36.5390625 C100.431406,36.5390625 104.220469,38.2773438 107.228281,41.7539062 C110.197031,45.1914062 111.681406,49.6445312 111.681406,55.1132812 C111.681406,60.2695312 110.157969,64.5664062 107.111094,68.0039062 C104.142344,71.4414062 100.372812,73.1601562 95.8025,73.1601562 Z M137.844375,17.1679688 C140.227187,17.1679688 142.238906,16.328125 143.879531,14.6484375 C145.559219,12.96875 146.399062,10.9375 146.399062,8.5546875 C146.399062,6.171875 145.559219,4.16015625 143.879531,2.51953125 C142.199844,0.83984375 140.168594,0 137.785781,0 C135.442031,0 133.430312,0.83984375 131.750625,2.51953125 C130.070937,4.19921875 129.231094,6.19140625 129.231094,8.49609375 C129.231094,10.9179688 130.070937,12.96875 131.750625,14.6484375 C133.430312,16.328125 135.461562,17.1679688 137.844375,17.1679688 Z M144.406875,76.7050781 L144.406875,32.8183594 C144.406875,29.1778105 141.455627,26.2265625 137.815078,26.2265625 C134.174529,26.2265625 131.223281,29.1778105 131.223281,32.8183594 L131.223281,76.7050781 C131.223281,80.345627 134.174529,83.296875 137.815078,83.296875 C141.455627,83.296875 144.406875,80.345627 144.406875,76.7050781 Z" id="tipi" fill="#FFFFFF" fill-rule="nonzero"></path>
    </g>
</svg>